<?xml version="1.0" standalone="no"?>
<!DOCTYPE svg PUBLIC "-//W3C//DTD SVG 20010904//EN"
 "http://www.w3.org/TR/2001/REC-SVG-20010904/DTD/svg10.dtd">
<svg version="1.0" xmlns="http://www.w3.org/2000/svg"
 width="640.000000pt" height="1280.000000pt" viewBox="0 0 640.000000 1280.000000"
 preserveAspectRatio="xMidYMid meet">
<metadata>
Created by potrace 1.16, written by Peter Selinger 2001-2019
</metadata>
<g transform="translate(0.000000,1280.000000) scale(0.100000,-0.100000)"
fill="#000000" stroke="none">
<path d="M5285 12611 c13 -7 -6 -8 -56 -4 -42 3 -113 0 -158 -6 -233 -34 -631
-160 -842 -267 -64 -32 -110 -39 -94 -15 3 5 0 13 -6 17 -8 5 -9 3 -4 -6 5 -8
3 -11 -6 -8 -8 3 -14 10 -14 15 0 6 -4 15 -9 20 -5 5 -6 2 -1 -6 5 -9 3 -12
-6 -9 -8 3 -14 10 -14 15 0 6 -4 15 -9 20 -5 5 -6 3 -2 -4 10 -18 8 -17 -65
16 -105 47 -160 56 -324 55 -125 -1 -168 -6 -257 -27 -172 -42 -312 -100 -442
-184 -37 -24 -70 -42 -72 -40 -5 5 89 68 144 96 23 12 42 24 42 26 0 9 -81
-35 -143 -77 -32 -22 -56 -42 -53 -45 7 -8 -13 -33 -26 -33 -5 0 -6 6 -2 13 4
6 -2 4 -14 -7 -12 -10 -20 -22 -17 -26 2 -3 -19 -29 -47 -56 -29 -27 -46 -40
-38 -29 l15 20 -24 -20 c-28 -24 -71 -82 -52 -70 16 9 16 10 -27 -75 -40 -80
-62 -159 -62 -222 0 -42 -5 -53 -38 -86 -55 -55 -67 -107 -66 -282 1 -158 16
-260 66 -455 29 -114 30 -127 24 -255 -5 -119 -31 -316 -54 -404 -6 -23 -16
-32 -38 -37 -16 -4 -38 -10 -49 -14 -20 -7 -20 -6 -1 9 11 9 15 16 9 16 -6 0
-16 -7 -23 -15 -7 -8 -9 -15 -4 -15 4 0 -3 -11 -16 -25 -12 -13 -26 -22 -30
-20 -4 3 -14 -3 -21 -13 -13 -15 -12 -16 3 -3 22 17 23 8 3 -23 -24 -37 -63
-142 -96 -261 -42 -153 -57 -193 -186 -505 -410 -985 -452 -1296 -267 -1983
l35 -128 -46 -59 c-26 -33 -50 -58 -55 -55 -4 3 -14 -3 -21 -13 -13 -15 -12
-16 4 -3 10 8 17 9 17 3 0 -11 -19 -27 -32 -27 -3 0 -10 -4 -15 -9 -5 -5 -2
-6 6 -1 9 5 12 3 9 -6 -3 -8 -11 -14 -18 -14 -8 0 -29 -21 -48 -47 -19 -27
-31 -48 -29 -48 3 0 20 20 38 45 59 82 41 39 -24 -56 -97 -142 -170 -272 -267
-472 -310 -641 -490 -1379 -490 -2012 0 -139 20 -369 40 -475 19 -99 86 -290
102 -290 5 0 29 14 53 30 49 34 64 38 44 12 -13 -15 -12 -16 4 -3 9 8 15 16
12 19 -7 7 15 32 27 32 6 0 4 -8 -3 -17 -13 -16 -12 -17 4 -4 9 8 15 16 12 19
-3 3 3 14 12 24 12 13 -10 6 -67 -22 -54 -25 -86 -36 -89 -29 -5 17 18 245 40
399 74 497 221 1019 480 1708 220 585 390 940 610 1274 153 232 229 372 229
422 1 79 77 170 260 312 178 139 218 191 394 519 83 157 92 163 156 121 78
-52 114 -172 113 -386 0 -159 -11 -255 -63 -570 -22 -129 -44 -275 -50 -325
-49 -414 -136 -613 -454 -1028 -170 -222 -176 -232 -264 -423 -110 -238 -147
-292 -247 -358 -159 -106 -324 -249 -431 -374 -78 -92 -95 -140 -134 -397 -44
-287 -68 -353 -196 -542 -42 -63 -56 -88 -37 -70 16 15 32 25 34 22 3 -2 21
12 40 33 22 24 25 28 7 13 -40 -35 -33 -13 11 38 l39 44 6 -69 c18 -188 51
-318 123 -484 129 -295 203 -628 234 -1049 12 -166 8 -354 -11 -466 -24 -146
-50 -205 -330 -751 -72 -139 -122 -278 -139 -385 -12 -73 -15 -199 -4 -199 3
0 26 12 51 26 42 25 45 25 61 8 15 -17 15 -17 -1 -5 -14 10 -21 9 -42 -4 -14
-10 -26 -20 -26 -22 0 -3 12 2 26 12 24 16 27 16 47 -2 11 -10 17 -12 12 -4
-6 11 -4 13 11 6 147 -60 300 -46 634 60 96 31 255 75 352 99 109 27 205 58
252 80 76 37 171 114 195 159 l14 26 51 -26 c131 -66 269 -103 390 -104 76 -1
128 11 210 46 15 7 17 5 11 -6 -5 -8 -5 -11 1 -6 5 5 9 12 9 15 0 13 16 32 27
32 7 0 6 -6 -2 -15 -29 -35 0 -10 55 47 33 34 52 56 42 49 -9 -8 -17 -9 -17
-4 0 13 43 52 54 50 5 -1 20 14 35 33 14 19 18 29 9 21 -11 -8 -18 -9 -18 -3
0 11 19 27 34 27 5 0 15 11 24 25 l14 25 -21 -25 c-24 -30 -28 -20 -5 15 9 14
20 23 24 20 5 -3 12 0 16 6 4 8 3 9 -4 5 -18 -11 -16 -5 34 88 60 113 83 182
94 279 10 83 61 214 79 203 5 -4 13 -1 17 5 5 8 3 9 -6 4 -8 -5 -11 -3 -8 6 3
8 10 13 16 12 5 -1 16 5 24 15 12 15 11 16 -4 3 -10 -7 -18 -9 -18 -3 0 12 25
34 32 27 3 -3 11 3 19 12 13 16 12 17 -3 4 -10 -7 -18 -9 -18 -3 0 12 25 34
32 27 3 -3 13 5 24 17 l19 23 -22 -19 c-35 -30 -27 -3 9 30 18 16 26 21 19 11
-22 -28 -7 -19 25 15 16 18 19 24 7 14 -13 -11 -23 -15 -23 -9 0 12 45 55 52
48 2 -3 15 7 29 22 22 25 22 26 2 9 -13 -11 -23 -15 -23 -9 0 13 35 45 42 38
3 -3 13 5 24 17 l19 23 -22 -19 c-13 -11 -23 -16 -23 -11 0 9 51 70 59 70 14
1 32 18 46 46 22 41 11 36 -14 -7 -12 -20 -24 -34 -27 -31 -4 3 3 18 14 34 36
51 83 154 159 347 42 105 96 236 120 291 65 143 69 155 133 411 60 240 99 346
179 482 23 40 46 70 51 67 5 -3 12 0 16 6 5 8 3 9 -6 4 -21 -13 -9 11 70 136
141 224 235 454 350 853 215 750 296 1379 260 2027 -39 682 -167 1264 -382
1739 -39 85 -119 277 -179 425 -115 284 -178 418 -236 498 -19 27 -33 51 -30
53 2 2 18 -16 36 -41 18 -25 35 -45 38 -45 2 0 -10 21 -29 47 -18 25 -38 46
-43 45 -13 -1 -45 28 -45 41 0 6 10 2 23 -9 20 -18 20 -17 -2 8 -13 15 -29 26
-35 25 -6 -1 -10 7 -9 18 1 11 0 14 -4 6 -3 -9 -48 29 -134 115 -71 71 -129
133 -129 138 0 6 17 -6 38 -25 l37 -34 -40 43 c-40 43 -52 52 -39 30 4 -7 0
-6 -8 2 -8 8 -34 65 -58 125 -23 61 -60 145 -81 187 -42 84 -45 93 -27 82 7
-4 8 -3 4 5 -4 6 -11 9 -15 6 -9 -5 -65 74 -58 81 3 3 15 -11 27 -30 20 -33
41 -53 24 -23 -21 36 -47 67 -52 63 -7 -7 -32 13 -32 26 0 6 8 4 18 -3 14 -11
13 -9 -2 9 -11 12 -21 20 -24 17 -7 -7 -32 15 -32 27 0 6 8 4 18 -3 9 -7 6 -1
-7 14 -27 30 -41 37 -20 10 11 -15 10 -15 -8 1 -13 10 -20 23 -17 28 3 4 0 7
-8 6 -7 -2 -12 3 -10 10 1 8 -2 11 -7 8 -5 -4 -12 -2 -16 4 -3 5 1 10 9 10 23
0 20 8 -18 51 -41 45 -52 90 -36 150 16 59 59 141 70 134 5 -3 12 0 16 6 5 8
3 9 -6 4 -8 -5 -11 -3 -8 6 3 8 10 14 16 14 5 0 14 4 19 9 5 5 2 6 -6 1 -9 -5
-12 -3 -9 6 3 8 10 14 15 14 6 0 15 4 20 9 5 5 2 6 -6 1 -9 -5 -12 -3 -9 6 3
8 10 14 15 14 6 0 15 4 20 9 5 5 2 6 -6 1 -9 -5 -12 -3 -9 6 3 8 10 14 15 14
6 0 15 4 20 9 5 5 2 6 -6 1 -9 -5 -12 -3 -9 6 3 8 10 14 15 14 6 0 15 4 20 9
5 5 2 6 -6 1 -9 -5 -12 -3 -9 6 3 8 10 14 15 14 6 0 15 4 20 9 5 5 2 6 -6 1
-9 -5 -12 -3 -9 6 3 8 10 14 15 14 6 0 15 4 20 9 5 5 3 6 -4 2 -18 -10 -17 -7
24 80 36 74 38 86 41 191 4 112 -11 218 -41 285 l-12 27 -60 -36 c-142 -84
-285 -120 -358 -90 -20 9 -40 23 -43 31 -10 25 47 115 109 172 141 131 449
268 753 337 102 23 265 92 339 143 24 17 39 18 29 2 -4 -8 -3 -10 2 -5 5 5 9
12 9 15 0 13 16 32 27 32 6 0 5 -7 -3 -17 -13 -16 -12 -17 3 -5 10 8 16 19 15
25 -1 7 4 11 11 10 6 -2 11 0 10 5 0 4 2 15 6 25 5 9 5 25 0 35 -4 9 -8 21 -8
27 -1 5 -10 11 -21 12 l-20 3 20 -9z m-1949 -790 c23 -10 45 -24 49 -31 4 -6
-11 -2 -33 9 l-41 21 -50 -40 c-78 -62 -91 -103 -45 -139 42 -33 163 -27 203
10 27 25 31 24 31 -9 0 -70 -68 -132 -145 -132 -119 0 -205 71 -205 170 0 51
21 92 60 120 60 43 114 49 176 21z m-579 -251 c98 -40 172 -89 233 -158 63
-71 88 -135 111 -291 27 -184 42 -227 97 -282 56 -55 116 -79 257 -105 137
-25 535 -26 675 -1 l95 16 38 -37 c95 -91 199 -252 268 -412 60 -139 60 -135
-3 -103 -75 38 -199 44 -291 14 -69 -22 -165 -74 -216 -117 -17 -14 -31 -24
-31 -22 0 1 7 39 15 83 44 247 -15 376 -193 425 -79 21 -252 13 -442 -21 -96
-17 -222 -33 -280 -36 -178 -9 -288 33 -400 155 -51 56 -61 72 -80 145 -50
183 -71 311 -77 460 -7 175 4 241 47 287 37 39 78 39 177 0z m1755 -1401 c64
-33 433 -416 500 -518 68 -103 104 -182 229 -491 58 -146 138 -335 177 -421
182 -399 296 -865 359 -1464 22 -213 25 -863 5 -1045 -63 -552 -207 -1175
-383 -1647 -66 -177 -106 -257 -237 -467 -185 -299 -222 -384 -287 -663 -46
-199 -66 -262 -124 -390 -27 -60 -83 -196 -126 -303 -98 -249 -148 -345 -235
-450 -265 -322 -301 -378 -321 -500 -22 -137 -31 -171 -70 -252 -94 -194 -258
-396 -361 -443 -77 -35 -180 -42 -289 -21 -82 17 -228 70 -274 100 l-22 15 21
58 c18 50 20 80 20 218 0 140 -6 191 -42 405 -59 349 -66 432 -59 724 7 299
31 487 93 741 57 232 124 394 330 807 158 315 205 424 258 586 101 311 116
603 60 1152 -8 85 -14 186 -12 223 l4 69 87 84 c47 46 94 98 104 116 14 27 18
74 24 268 8 254 1 218 93 557 44 162 59 305 60 573 1 317 -10 378 -159 900
-79 275 -108 402 -126 550 -21 171 -4 261 118 630 l48 145 60 48 c68 55 135
92 215 119 78 26 198 20 262 -13z"/>
<path d="M3327 943 c-44 -15 -48 -18 -42 -42 4 -14 8 -28 10 -30 2 -2 25 4 51
13 60 20 134 21 181 1 46 -20 48 -19 61 10 11 25 10 27 -30 45 -54 24 -163 26
-231 3z"/>
<path d="M4102 743 l-333 -3 3 -28 3 -27 343 -3 342 -2 0 35 c0 23 -4 34 -12
33 -7 -2 -163 -4 -346 -5z"/>
<path d="M3885 612 c-3 -13 -4 -27 -1 -29 8 -8 75 -19 286 -48 290 -38 426
-74 529 -139 l41 -26 14 23 c16 23 16 51 1 64 -4 4 -5 2 -1 -4 9 -17 -4 -16
-29 0 -39 27 -171 75 -260 95 -49 12 -175 33 -280 47 -104 14 -213 29 -242 34
-50 7 -52 7 -58 -17z"/>
<path d="M3916 405 c-14 -38 -5 -44 125 -85 158 -50 328 -134 389 -193 61 -59
89 -95 79 -101 -5 -2 -5 -4 2 -3 6 2 10 7 10 12 0 6 7 18 16 27 14 16 13 21
-12 53 -56 74 -155 138 -345 223 -24 11 -24 11 5 6 119 -23 284 -93 490 -208
110 -62 120 -66 132 -50 27 36 35 30 -212 159 -249 131 -364 166 -530 164 -60
-1 -117 2 -126 5 -11 5 -19 1 -23 -9z"/>
</g>
</svg>
